<?xml version="1.0" encoding="utf-8"?>
<!-- Generator: Adobe Illustrator 19.1.0, SVG Export Plug-In . SVG Version: 6.00 Build 0)  -->
<svg version="1.1" id="Layer_1" xmlns="http://www.w3.org/2000/svg" xmlns:xlink="http://www.w3.org/1999/xlink" x="0px" y="0px"
	 viewBox="0 0 960 175" style="enable-background:new 0 0 960 175;" xml:space="preserve">
<g>
	<polygon style="fill:#990033;" points="0,175 0,50 0,50 9.2,51.5 36.5,54.8 56.2,57 79.8,59.2 107,61.8 137.5,64.2 171.2,66.5 
		208,68.5 247.8,70 268.5,70.8 289.8,71.2 311.8,71.8 334.2,72 357.5,72 381,71.8 405.2,71.5 429.8,71 454.8,70.2 480.2,69.2 
		480.2,69.2 505.8,68 530.8,66.5 555.2,65 579.5,63.2 603,61.2 626.2,59.2 648.8,57 670.8,54.8 712.8,49.8 752.5,44.8 789,39.5 
		822.8,34.2 853.2,29.2 880.2,24.5 903.8,20.2 923.5,16.2 950.5,10.5 960,8.5 960,175 0,175 	"/>
	<polygon style="fill:#004466;" points="0,175 0,74 0,74 9.2,75 36.5,77.2 56.2,78.8 79.8,80.2 106.8,81.5 137.2,83 171.2,84 
		208,84.8 247.5,85.2 289.8,85 311.5,84.8 334.2,84.2 357.2,83.8 381,83 405,82 429.8,80.8 454.8,79.2 480.2,77.8 480.2,77.8 
		505.5,75.8 530.8,73.8 555.2,71.5 579.2,69 603,66.5 626,63.8 648.5,60.8 670.5,57.8 692,54.5 712.8,51.5 732.8,48.2 752.2,45 
		789,38.2 822.8,31.8 853.2,25.5 880.2,19.8 903.8,14.2 923.5,9.5 939,5.5 950.5,2.5 960,0 960,175 0,175 	"/>
	<polygon style="fill:#FFFFFF;" points="810.8,99.2 810.8,99.2 812.2,99 813.8,98.8 814.8,98.2 815.8,97.2 816.5,96.2 817,95.2 
		817.2,93.8 817.2,92.5 817.2,82.2 815.2,82.2 815.2,92.5 815.2,92.5 815,94.5 814.8,95.5 814.2,96.2 813.8,96.8 813,97.2 812,97.5 
		810.8,97.5 810.8,97.5 809.8,97.5 808.8,97.2 808,96.8 807.5,96.2 807,95.8 806.8,94.8 806.5,92.5 806.5,82.2 804.5,82.2 
		804.5,92.8 804.5,92.8 804.5,94.2 804.8,95.5 805.2,96.8 805.8,97.5 806.8,98.2 807.8,98.8 809,99 810.8,99.2 810.8,99.2 	"/>
	<polygon style="fill:#FFFFFF;" points="827.5,87.2 827.5,87.2 826.5,87.5 825.2,87.8 824.2,88.5 823,89.5 823,89.5 823,88.2 
		822.8,87.5 821,87.5 821,99 823,99 823,91 823,91 824,90.2 825,89.5 826,89.2 826.8,89 826.8,89 827.5,89.2 828,89.5 828.2,90 
		828.2,90.8 828.2,99 830.2,99 830.2,90.5 830.2,90.5 830.2,89.2 829.8,88.2 828.8,87.5 827.5,87.2 827.5,87.2 	"/>
	<polygon style="fill:#FFFFFF;" points="836,99 836,87.5 834.2,87.5 834.2,99 836,99 	"/>
	<polygon style="fill:#FFFFFF;" points="836.2,83 834,83 834,85 836.2,85 836.2,83 	"/>
	<polygon style="fill:#FFFFFF;" points="844.5,99 849,87.8 847.2,87.8 844,96 844,96 843.8,97 843.8,97 843.5,96 840.5,87.8 
		838.2,87.8 842.8,99 844.5,99 	"/>
	<path style="fill:#FFFFFF;" d="M855.2,99.2L855.2,99.2l1.5-0.2l1.2-0.2l1-0.5l1-0.5l-0.5-1.2l0,0l-1.8,0.8l-1,0.2l-1,0.2l0,0
		l-1.5-0.2l-0.5-0.5l-0.5-0.2l-0.5-0.8l-0.2-0.8v-1.8h7.2l0,0l0.2-1.8l0,0l-0.2-1.8l-0.5-0.8l-0.2-0.8l-0.8-0.5l-0.5-0.2l-1-0.2H856
		l0,0h-1.2l-1,0.2l-1,0.5L852,89l-0.8,1l-0.5,1l-0.2,1.5V94l0,0v1.2l0.2,1l0.5,1l0.5,0.8l0.8,0.5l0.8,0.5l1,0.2H855.2L855.2,99.2
		L855.2,99.2z M855.8,89L855.8,89h1l0.8,0.8l0.5,0.8v1.2V92h-5.5l0,0l0.5-1.2l0.5-1l1-0.8H855.8L855.8,89L855.8,89z"/>
	<polygon style="fill:#FFFFFF;" points="865,90.5 865,90.5 864.8,88.5 864.8,87.5 863,87.5 863,99 865,99 865,92.5 865,92.5 
		866.2,90.8 867,89.8 867.5,89.2 868.2,89.2 868.2,89.2 869,89.2 869.2,87.5 869.2,87.5 868,87.5 868,87.5 867.2,87.5 866.5,88 
		865.8,89 865,90.5 865,90.5 	"/>
	<polygon style="fill:#FFFFFF;" points="875.2,92.5 875.2,92.5 874,92 873.2,91.8 873,91.2 872.8,90.5 872.8,90.5 873,90 
		873.2,89.5 874,89.2 875,89 875,89 876.8,89.2 878.2,89.8 878.8,88.2 878.8,88.2 877,87.5 875.2,87.2 875.2,87.2 873.2,87.5 
		872,88.2 871.5,88.8 871.2,89.5 871,90 870.8,90.8 870.8,90.8 871,91.8 871.5,92.8 872.8,93.5 874.5,94.2 874.5,94.2 875.8,94.8 
		876.5,95 876.8,95.5 877,96.2 877,96.2 876.8,96.8 876.2,97.2 875.8,97.5 874.5,97.8 874.5,97.8 872.8,97.5 870.8,96.8 870.2,98.2 
		870.2,98.2 872.2,99 874.2,99.2 874.2,99.2 875.5,99.2 876.5,99 877.2,98.8 877.8,98.2 878.2,97.8 878.5,97.2 878.8,96 878.8,96 
		878.8,95 878.2,94 877,93.2 875.2,92.5 875.2,92.5 	"/>
	<polygon style="fill:#FFFFFF;" points="883.8,99 883.8,87.5 882,87.5 882,99 883.8,99 	"/>
	<polygon style="fill:#FFFFFF;" points="884,83 881.8,83 881.8,85 884,85 884,83 	"/>
	<polygon style="fill:#FFFFFF;" points="893.5,97 893.5,97 892.2,97.5 891.2,97.5 891.2,97.5 890.5,97.5 890.2,97.2 890,97 
		890,96.2 890,89.2 893.5,89.2 893.8,87.5 890,87.5 890,83.8 888.2,84 888,87.8 886.5,87.8 886.5,89 888,89.2 888,96.5 888,96.5 
		888,97.8 888.5,98.5 889.5,99 890.8,99.2 890.8,99.2 892.5,99 894,98.5 893.5,97 	"/>
	<path style="fill:#FFFFFF;" d="M900.5,99.2L900.5,99.2l1.2-0.2l1.2-0.2l1.2-0.5l1-0.5l-0.8-1.2l0,0l-1.8,0.8l-1,0.2l-0.8,0.2l0,0
		l-1.5-0.2l-0.8-0.5l-0.5-0.2L898,96l-0.2-0.8l-0.2-1.8h7.5l0,0v-1.8l0,0l-0.2-1.8l-0.2-0.8l-0.5-0.8l-0.5-0.5l-0.8-0.2l-0.8-0.2h-1
		l0,0h-1l-1.2,0.2l-1,0.5L897,89l-0.5,1l-0.5,1l-0.2,1.5l-0.2,1.5l0,0l0.2,1.2l0.2,1l0.2,1L897,98l0.8,0.5l0.8,0.5l1,0.2H900.5
		L900.5,99.2L900.5,99.2z M901,89L901,89h1l0.8,0.8l0.2,0.8l0.2,1.2V92h-5.8l0,0l0.5-1.2l0.8-1l1-0.8H901L901,89L901,89z"/>
	<polygon style="fill:#FFFFFF;" points="910.2,99 910.2,87.5 908.2,87.5 908.2,99 910.2,99 	"/>
	<polygon style="fill:#FFFFFF;" points="910.2,83 908,83 908,85 910.2,85 910.2,83 	"/>
	<polygon style="fill:#FFFFFF;" points="920,97 920,97 918.8,97.5 917.5,97.5 917.5,97.5 917,97.5 916.5,97.2 916.2,97 916.2,96.2 
		916.2,89.2 920,89.2 920,87.5 916.2,87.5 916.2,83.8 914.5,84 914.2,87.8 912.8,87.8 912.8,89 914.2,89.2 914.2,96.5 914.2,96.5 
		914.5,97.8 915,98.5 915.8,99 917,99.2 917,99.2 918.8,99 920.2,98.5 920,97 	"/>
	<path style="fill:#FFFFFF;" d="M810.2,111.2L804,128h2l2-5h6.2l1.8,5h2.2l-6-16.8H810.2L810.2,111.2z M808.5,121.5l2.2-6.8l0,0
		l0.5-1.2l0,0l0.2,1.2l2.2,6.8H808.5L808.5,121.5z"/>
	<polygon style="fill:#FFFFFF;" points="827,116.2 827,116.2 825.8,116.5 824.8,116.8 823.8,117.5 822.5,118.5 822.5,118.5 
		822.5,117.2 822.2,116.5 820.5,116.5 820.5,128 822.5,128 822.5,120 822.5,120 823.5,119 824.5,118.5 825.5,118 826.2,118 
		826.2,118 827,118 827.5,118.5 827.8,119 827.8,119.8 827.8,128 829.8,128 829.8,119.5 829.8,119.5 829.5,118 829,117 828.2,116.5 
		827,116.2 827,116.2 	"/>
	<polygon style="fill:#FFFFFF;" points="837,126.5 837,126.5 836.5,126.5 836,126.2 835.8,126 835.8,125.2 835.8,118 839.5,118 
		839.5,116.5 835.8,116.5 835.8,112.8 834,113 833.8,116.5 832.2,116.8 832.2,118 833.8,118 833.8,125.5 833.8,125.5 834,126.8 
		834.5,127.5 835.2,128 836.5,128.2 836.5,128.2 838.2,128 839.8,127.5 839.5,126 839.5,126 838.2,126.5 837,126.5 837,126.5 	"/>
	<polygon style="fill:#FFFFFF;" points="853,124.8 853,124.8 852.8,126 852.8,126 852.5,124.8 849.8,116.5 848.2,116.5 845.5,124.8 
		845.5,124.8 845.2,126 845.2,126 845,124.8 842.5,116.5 840.5,116.5 844.2,128 845.8,128 848.5,119.8 848.5,119.8 848.8,118.5 
		848.8,118.5 849,119.8 851.8,128 853.5,128 857.5,116.5 855.8,116.5 853,124.8 	"/>
	<path style="fill:#FFFFFF;" d="M864.2,126.5L864.2,126.5l-1.5-0.2l-0.5-0.2l-0.5-0.5l-0.5-0.5l-0.2-0.8l-0.2-1.8h7.5l0,0v-1.8l0,0
		L868,119l-0.2-0.8l-0.5-0.8l-0.5-0.5l-0.8-0.2l-0.8-0.2l-0.8-0.2l0,0l-1.2,0.2l-1.2,0.2l-0.8,0.5l-1,0.8l-0.5,1l-0.5,1l-0.2,1.5
		l-0.2,1.5l0,0l0.2,1.2l0.2,1l0.5,1l0.5,0.8l0.8,0.5l0.8,0.5h1l1,0.2l0,0l1.5-0.2l1-0.2l1.2-0.5l1-0.5l-0.8-1.2l0,0l-1.8,0.8
		l-0.8,0.2H864.2L864.2,126.5L864.2,126.5z M864.2,117.8L864.2,117.8l1,0.2l0.8,0.5l0.5,1v1.2v0.2H861l0,0l0.2-1.2l0.8-1l1-0.8
		L864.2,117.8L864.2,117.8L864.2,117.8z"/>
	<polygon style="fill:#FFFFFF;" points="873.2,119.5 873.2,119.5 873.2,117.5 873,116.5 871.5,116.5 871.5,128 873.5,128 
		873.5,121.5 873.5,121.5 874.5,119.5 875.2,118.5 876,118.2 876.8,118 876.8,118 877.5,118 877.8,116.5 877.8,116.5 876.5,116.2 
		876.5,116.2 875.8,116.5 875,117 874.2,118 873.2,119.5 873.2,119.5 	"/>
	<path style="fill:#FFFFFF;" d="M885.5,116.2L885.5,116.2l-1.2,0.2l-0.8,0.2l-1,0.5l-0.8,0.8l0,0l-0.2-1.5h-1.8V133l2-0.2v-5l0,0
		l1,0.2l1.5,0.2l0,0l1.2-0.2l1-0.2l1-0.8l0.8-0.8l0.8-0.8l0.2-1.2l0.2-1l0.2-1.2l0,0l-0.2-1.5v-1l-0.5-1l-0.5-0.8L888,117l-0.8-0.2
		l-1-0.2L885.5,116.2L885.5,116.2L885.5,116.2z M884.2,126.8L884.2,126.8l-1.2-0.2l-1.2-0.2v-6.8l0,0l0.8-0.5l0.5-0.5l1-0.5h0.8l0,0
		h0.8l0.5,0.2l0.5,0.2l0.5,0.5l0.5,1.5l0.2,1.5l0,0l-0.2,2l-0.2,0.8l-0.5,0.8l-0.5,0.5l-0.5,0.5l-0.8,0.2H884.2L884.2,126.8
		L884.2,126.8z"/>
	<path style="fill:#FFFFFF;" d="M897.2,126.5L897.2,126.5l-1.5-0.2l-0.5-0.2l-0.5-0.5l-0.5-0.5l-0.2-0.8l-0.2-1.8h7.5l0,0v-1.8l0,0
		L901,119l-0.2-0.8l-0.5-0.8l-0.5-0.5l-0.8-0.2l-0.8-0.2l-0.8-0.2l0,0l-1.2,0.2l-1.2,0.2l-0.8,0.5l-1,0.8l-0.5,1l-0.5,1l-0.2,1.5
		v1.5l0,0v1.2l0.2,1l0.5,1l0.5,0.8l0.8,0.5l0.8,0.5h1l1,0.2l0,0l1.5-0.2l1-0.2l1.2-0.5l1-0.5l-0.8-1.2l0,0l-1.8,0.8l-0.8,0.2H897.2
		L897.2,126.5L897.2,126.5z M897.2,117.8L897.2,117.8l1,0.2l0.8,0.5l0.5,1v1.2v0.2H894l0,0l0.2-1.2l0.8-1l1-0.8L897.2,117.8
		L897.2,117.8L897.2,117.8z"/>
	<polygon style="fill:#FFFFFF;" points="911,116.2 911,116.2 909.8,116.5 908.8,116.8 907.8,117.5 906.5,118.5 906.5,118.5 
		906.5,117.2 906.2,116.5 904.5,116.5 904.5,128 906.5,128 906.5,120 906.5,120 907.5,119 908.5,118.5 909.5,118 910.2,118 
		910.2,118 911,118 911.5,118.5 911.8,119 911.8,119.8 911.8,128 913.8,128 913.8,119.5 913.8,119.5 913.5,118 913,117 912.2,116.5 
		911,116.2 911,116.2 	"/>
	<polygon style="fill:#FFFFFF;" points="780,102.5 780,82.2 773.8,82.2 773.8,100.2 773.8,100.2 770.2,99 770.2,99 767,97.8 
		764.2,97.2 761.5,97 759,97.2 756.8,97.8 754.5,98.2 752.8,99.2 751,100.2 749.5,101.5 748.2,102.8 746.2,104.8 745.2,106.5 
		744.8,107.2 744.8,107.2 746,106.5 747.8,106.2 750,106 753,106 757,106.8 759.5,107.2 762,108.2 764.8,109.2 767.8,110.8 
		767.8,110.8 770.8,112 773.8,113 773.8,113 773.5,115 773.2,116.8 773,118.5 772.5,120 771.8,121.5 771,123 770,124.2 769,125.5 
		768,126.5 766.8,127.2 765.5,128.2 764,128.8 762.5,129.2 761,129.8 759.5,130 757.8,130 757.8,130 756,130 754.2,129.8 
		752.8,129.2 751.2,128.8 749.8,128 748.5,127.2 747.2,126.5 746.2,125.2 745,124.2 744.2,122.8 743.5,121.5 742.8,120 742.2,118.2 
		742,116.5 741.8,114.8 741.5,112.8 741.5,82.2 733.8,82.2 733.8,82.2 729,82.2 729,113.5 729,113.5 729,115.5 729.2,117.5 
		729.8,119.5 730.2,121.5 731,123.2 731.8,125 732.8,126.5 733.8,128 735,129.5 736.2,130.8 737.8,132 739.2,133 742.5,135 
		746,136.2 746,136.2 746.5,136.2 746.5,136.2 747.2,136.5 747.2,136.5 748.5,136.8 748.5,136.8 751.2,137 754.2,137.2 757,137.2 
		759.8,137 759.8,137 761.8,136.8 761.8,136.8 763.2,136.2 763.2,136.2 763.2,136.2 763.2,136.2 763.2,136.2 763.2,136.2 
		763.8,136.2 763.8,136.2 763.8,136.2 763.8,136.2 767,134.8 770,133 772.8,131 775.2,128.2 777,125.2 778.5,122 779.5,118.5 
		779.8,116.5 780,114.5 780,114.5 782.2,114.8 784.2,114.8 786.2,114.5 788.2,114 789.8,113.5 791.2,112.8 792.8,112 793.8,111 
		794.8,110 795.5,108.8 796.2,107.8 796.8,106.5 797,105.2 797,104 797,102.8 796.8,101.5 796.8,101.5 796,102.8 794.8,103.5 
		793.5,104.2 791.8,104.8 789.5,104.8 787,104.5 783.8,103.8 780,102.5 780,102.5 	"/>
</g>
</svg>
