<?xml version="1.0" encoding="utf-8"?>
<!-- Generator: Adobe Illustrator 19.1.0, SVG Export Plug-In . SVG Version: 6.00 Build 0)  -->
<svg version="1.1" id="Capa_1" xmlns="http://www.w3.org/2000/svg" xmlns:xlink="http://www.w3.org/1999/xlink" x="0px" y="0px"
	 viewBox="515.2 -440 414.7 540" style="enable-background:new 515.2 -440 414.7 540;" xml:space="preserve">
<style type="text/css">
	.st0{fill:#FFFFFF;}
</style>
<path class="st0" d="M870.3-312c-25.1-47.8-77.7-128-147.7-128c-7,0-13.9,0.9-20.6,2.4c-39.1,8.8-71.8,41.5-96,75.1
	c-12.8,17.7-23.3,35.7-31.1,50.6c-13.9,26.4-26,55.4-35.6,84.4c-15.1,45.5-24.1,90.9-24.1,126.5c0,31.7,7.2,61.5,20.2,87.9
	C568.5,54.4,639,100,722.6,100c18.5,0,36.3-2.2,53.2-6.4C846.5,76,901.5,24.1,921.6-43.6c5.4-18.2,8.3-37.5,8.3-57.5
	C930-159.4,906-244.1,870.3-312z"/>
</svg>
