<?xml version="1.0" encoding="utf-8"?>
<!-- Generator: Adobe Illustrator 19.1.0, SVG Export Plug-In . SVG Version: 6.00 Build 0)  -->
<svg version="1.1" id="Layer_1" xmlns="http://www.w3.org/2000/svg" xmlns:xlink="http://www.w3.org/1999/xlink" x="0px" y="0px"
	 viewBox="-74 78 24 24" style="enable-background:new -74 78 24 24;" xml:space="preserve">
<style type="text/css">
	.st0{fill:#FFFFFF;}
	.st1{fill:none;}
</style>
<path class="st0" d="M-50,88.8h-5l3.9-3.9l-1.7-1.7l-5.6,5.6h-2.4v-2.4l5.6-5.6l-1.7-1.7l-3.9,3.9v-5h-2.4v5l-3.9-3.9l-1.7,1.7
	l5.6,5.6v2.4h-2.4l-5.6-5.6l-1.7,1.7l3.9,3.9h-5v2.4h5l-3.9,3.9l1.7,1.7l5.6-5.6h2.4v2.4l-5.6,5.6l1.7,1.7l3.9-3.9v5h2.4v-5l3.9,3.9
	l1.7-1.7l-5.6-5.6v-2.4h2.4l5.6,5.6l1.7-1.7l-3.9-3.9h5C-50,91.2-50,88.8-50,88.8z"/>
<path class="st1" d="M-74,78h24v24h-24V78z"/>
</svg>
