<?xml version="1.0" encoding="utf-8"?>
<!-- Generator: Adobe Illustrator 19.1.0, SVG Export Plug-In . SVG Version: 6.00 Build 0)  -->
<svg version="1.1" id="Layer_1" xmlns="http://www.w3.org/2000/svg" xmlns:xlink="http://www.w3.org/1999/xlink" x="0px" y="0px"
	 viewBox="-111 118.6 22 22" style="enable-background:new -111 118.6 22 22;" xml:space="preserve">
<style type="text/css">
	.st0{fill:#FFFFFF;}
</style>
<path class="st0" d="M-105.2,122.9l-1.8-1.8l-1.4,1.4l1.8,1.8L-105.2,122.9z M-108,128.6h-3v2h3V128.6z M-99,118.6h-2v3h2V118.6z
	 M-91.5,122.6l-1.5-1.5l-1.8,1.8l1.4,1.4L-91.5,122.6z M-94.8,136.3l1.8,1.8l1.4-1.4l-1.8-1.8L-94.8,136.3z M-92,128.6v2h3v-2H-92z
	 M-100,123.6c-3.3,0-6,2.7-6,6c0,3.3,2.7,6,6,6s6-2.7,6-6C-94,126.3-96.7,123.6-100,123.6z M-101,140.6h2v-3h-2V140.6z
	 M-108.5,136.6l1.5,1.5l1.8-1.8l-1.4-1.4L-108.5,136.6z"/>
</svg>
