<?xml version="1.0" encoding="utf-8"?>
<!-- Generator: Adobe Illustrator 19.1.0, SVG Export Plug-In . SVG Version: 6.00 Build 0)  -->
<svg version="1.1" id="Layer_1" xmlns="http://www.w3.org/2000/svg" xmlns:xlink="http://www.w3.org/1999/xlink" x="0px" y="0px"
	 viewBox="0 0 827 560" style="enable-background:new 0 0 827 560;" xml:space="preserve">
<g>
	
		<rect x="147.7" y="66.1" style="fill:#C0C0C0;stroke:#000000;stroke-width:2;stroke-miterlimit:10;" width="566.2" height="252.2"/>
	<text transform="matrix(1 0 0 1.0001 150.3649 90.2925)"><tspan x="0" y="0" style="font-family:'Helvetica'; font-size:20.7656px;">1001</tspan><tspan x="45.8" y="0" style="font-family:'Helvetica'; font-size:20.7656px;">FT</tspan><tspan x="71.3" y="0" style="font-family:'Helvetica'; font-size:20.7656px;">I</tspan><tspan x="77" y="0" style="font-family:'Helvetica'; font-size:20.7656px; letter-spacing:1;">W</tspan><tspan x="97.9" y="0" style="font-family:'Helvetica'; font-size:20.7656px;">I</tspan><tspan x="103.6" y="0" style="font-family:'Helvetica'; font-size:20.7656px;">S</tspan><tspan x="117.4" y="0" style="font-family:'Helvetica'; font-size:20.7656px;"> </tspan><tspan x="123.1" y="0" style="font-family:'Helvetica'; font-size:20.7656px;">1</tspan><tspan x="134.6" y="0" style="font-family:'Helvetica'; font-size:20.7656px;">-</tspan><tspan x="141.6" y="0" style="font-family:'Helvetica'; font-size:20.7656px; letter-spacing:1;">W</tspan><tspan x="162.4" y="0" style="font-family:'Helvetica'; font-size:20.7656px;">i</tspan><tspan x="167.1" y="0" style="font-family:'Helvetica'; font-size:20.7656px;">s</tspan><tspan x="177.5" y="0" style="font-family:'Helvetica'; font-size:20.7656px;">k</tspan><tspan x="188.3" y="0" style="font-family:'Helvetica'; font-size:20.7656px;">unde</tspan><tspan x="234.1" y="0" style="font-family:'Helvetica'; font-size:20.7656px;">/</tspan><tspan x="239.8" y="0" style="font-family:'Helvetica'; font-size:20.7656px;">S</tspan><tspan x="253.6" y="0" style="font-family:'Helvetica'; font-size:20.7656px;">01</tspan><tspan x="276.5" y="0" style="font-family:'Helvetica'; font-size:20.7656px;">/</tspan><tspan x="282.2" y="0" style="font-family:'Helvetica'; font-size:20.7656px;">L</tspan><tspan x="293.7" y="0" style="font-family:'Helvetica'; font-size:20.7656px;">E</tspan><tspan x="307.4" y="0" style="font-family:'Helvetica'; font-size:20.7656px;">C</tspan><tspan x="322.6" y="0" style="font-family:'Helvetica'; font-size:20.7656px;">/</tspan><tspan x="328.3" y="0" style="font-family:'Helvetica'; font-size:20.7656px;">HC</tspan><tspan x="358.5" y="0" style="font-family:'Helvetica'; font-size:20.7656px;">01</tspan><tspan x="381.4" y="0" style="font-family:'Helvetica'; font-size:20.7656px;">/</tspan><tspan x="387.2" y="0" style="font-family:'Helvetica'; font-size:20.7656px;">0</tspan><tspan x="398.6" y="0" style="font-family:'Helvetica'; font-size:20.7656px;">1</tspan></text>
	<rect x="150.4" y="71.8" style="fill:none;" width="409.9" height="22.9"/>
	<g>
		<defs>
			<rect id="SVGID_1_" x="150.4" y="183.4" width="74.6" height="22.9"/>
		</defs>
		<clipPath id="SVGID_2_">
			<use xlink:href="#SVGID_1_"  style="overflow:visible;"/>
		</clipPath>
		<g style="clip-path:url(#SVGID_2_);">
			<text transform="matrix(1 0 0 1.0001 150.3657 201.9251)"><tspan x="0" y="0" style="font-family:'Helvetica'; font-size:20.7656px;">S</tspan><tspan x="13.8" y="0" style="font-family:'Helvetica'; font-size:20.7656px;">.</tspan><tspan x="19.5" y="0" style="font-family:'Helvetica'; font-size:20.7656px;">R</tspan><tspan x="34.6" y="0" style="font-family:'Helvetica'; font-size:20.7656px;">.</tspan><tspan x="40.4" y="0" style="font-family:'Helvetica'; font-size:20.7656px;">01</tspan><tspan x="63.3" y="0" style="font-family:'Helvetica'; font-size:20.7656px;">4</tspan></text>
		</g>
	</g>
	<g>
		<defs>
			<rect id="SVGID_3_" x="628.5" y="183.4" width="82.7" height="22.9"/>
		</defs>
		<clipPath id="SVGID_4_">
			<use xlink:href="#SVGID_3_"  style="overflow:visible;"/>
		</clipPath>
		<g style="clip-path:url(#SVGID_4_);">
			<text transform="matrix(1 0 0 1.0001 628.5028 201.9218)"><tspan x="0" y="0" style="font-family:'Helvetica'; font-size:20.7656px;">2</tspan><tspan x="11.4" y="0" style="font-family:'Helvetica'; font-size:20.7656px;">-</tspan><tspan x="18.5" y="0" style="font-family:'Helvetica'; font-size:20.7656px;">6</tspan><tspan x="30" y="0" style="font-family:'Helvetica'; font-size:20.7656px;">, </tspan><tspan x="41.4" y="0" style="font-family:'Helvetica'; font-size:20.7656px;">8</tspan><tspan x="52.9" y="0" style="font-family:'Helvetica'; font-size:20.7656px;">-</tspan><tspan x="59.9" y="0" style="font-family:'Helvetica'; font-size:20.7656px;">1</tspan><tspan x="71.4" y="0" style="font-family:'Helvetica'; font-size:20.7656px;">3</tspan></text>
		</g>
	</g>
	<g>
		<defs>
			<rect id="SVGID_5_" x="150.4" y="295.4" width="103.6" height="22.9"/>
		</defs>
		<clipPath id="SVGID_6_">
			<use xlink:href="#SVGID_5_"  style="overflow:visible;"/>
		</clipPath>
		<g style="clip-path:url(#SVGID_6_);">
			<text transform="matrix(1 0 0 1.0001 150.3631 313.8924)"><tspan x="0" y="0" style="font-family:'Helvetica'; font-size:20.7656px;">Le</tspan><tspan x="22.9" y="0" style="font-family:'Helvetica'; font-size:20.7656px;">v</tspan><tspan x="33.3" y="0" style="font-family:'Helvetica'; font-size:20.7656px;">r</tspan><tspan x="40.4" y="0" style="font-family:'Helvetica'; font-size:20.7656px;">i</tspan><tspan x="45.1" y="0" style="font-family:'Helvetica'; font-size:20.7656px;">e</tspan><tspan x="56.5" y="0" style="font-family:'Helvetica'; font-size:20.7656px;">,</tspan><tspan x="62.2" y="0" style="font-family:'Helvetica'; font-size:20.7656px;">P</tspan><tspan x="76" y="0" style="font-family:'Helvetica'; font-size:20.7656px;">au</tspan><tspan x="98.9" y="0" style="font-family:'Helvetica'; font-size:20.7656px;">l</tspan></text>
		</g>
	</g>
	<g>
		<defs>
			<rect id="SVGID_7_" x="446.6" y="295.4" width="264.6" height="22.9"/>
		</defs>
		<clipPath id="SVGID_8_">
			<use xlink:href="#SVGID_7_"  style="overflow:visible;"/>
		</clipPath>
		<g style="clip-path:url(#SVGID_8_);">
			<text transform="matrix(1 0 0 1.0001 446.5944 313.8901)"><tspan x="0" y="0" style="font-family:'Helvetica'; font-size:20.7656px;">A</tspan><tspan x="13.8" y="0" style="font-family:'Helvetica'; font-size:20.7656px;">ll</tspan><tspan x="23.2" y="0" style="font-family:'Helvetica'; font-size:20.7656px;">een</tspan><tspan x="57.5" y="0" style="font-family:'Helvetica'; font-size:20.7656px;"> </tspan><tspan x="63.2" y="0" style="font-family:'Helvetica'; font-size:20.7656px;">v</tspan><tspan x="73.6" y="0" style="font-family:'Helvetica'; font-size:20.7656px;">oo</tspan><tspan x="96.5" y="0" style="font-family:'Helvetica'; font-size:20.7656px;">r</tspan><tspan x="103.6" y="0" style="font-family:'Helvetica'; font-size:20.7656px;"> </tspan><tspan x="109.3" y="0" style="font-family:'Helvetica'; font-size:20.7656px;">s</tspan><tspan x="119.7" y="0" style="font-family:'Helvetica'; font-size:20.7656px;">t</tspan><tspan x="125.5" y="0" style="font-family:'Helvetica'; font-size:20.7656px;">uden</tspan><tspan x="171.2" y="0" style="font-family:'Helvetica'; font-size:20.7656px;">t</tspan><tspan x="177" y="0" style="font-family:'Helvetica'; font-size:20.7656px;">en</tspan><tspan x="199.9" y="0" style="font-family:'Helvetica'; font-size:20.7656px;"> </tspan><tspan x="205.6" y="0" style="font-family:'Helvetica'; font-size:20.7656px;">BK</tspan><tspan x="233.2" y="0" style="font-family:'Helvetica'; font-size:20.7656px;">+</tspan><tspan x="245.3" y="0" style="font-family:'Helvetica'; font-size:20.7656px;">E</tspan><tspan x="259.1" y="0" style="font-family:'Helvetica'; font-size:20.7656px;">I</tspan></text>
		</g>
	</g>
</g>
<g>
	<path style="fill:none;stroke:#FFFFFF;stroke-width:4;stroke-miterlimit:10;" d="M123,130.6c46.3,0.5,82.9-16.8,83.1-39.9"/>
	<rect x="-7.1" y="118.4" style="fill:none;" width="130.1" height="76.8"/>
	<text transform="matrix(1 0 0 1 1.7955 135.8439)" style="fill:#FFFFFF; font-family:'Verdana'; font-size:23px;">Sisa-code</text>
	<rect x="150.4" y="71.8" style="fill:none;" width="119.5" height="22.9"/>
</g>
<g>
	<path style="fill:none;stroke:#FFFFFF;stroke-width:4;stroke-miterlimit:10;" d="M67.5,275.7c-0.1-63,123.4-33.6,123.4-69.1"/>
	<rect x="-7.1" y="284.6" style="fill:none;" width="130.1" height="76.8"/>
	<text transform="matrix(1 0 0 1 20.7638 302.0568)" style="fill:#FFFFFF; font-family:'Verdana'; font-size:23px;">Lokaal</text>
	<rect x="151.9" y="183.7" style="fill:none;" width="78.1" height="22.9"/>
</g>
<g>
	<path style="fill:none;stroke:#FFFFFF;stroke-width:4;stroke-miterlimit:10;" d="M103,351c0-32.9,102.6-1.2,102.6-36.2"/>
	<rect y="358.6" style="fill:none;" width="205.9" height="76.8"/>
	<text transform="matrix(1 0 0 1 62.4674 376.0829)" style="fill:#FFFFFF; font-family:'Verdana'; font-size:23px;">Docent</text>
	<rect x="150.4" y="294.7" style="fill:none;" width="107.2" height="22.9"/>
</g>
<g>
	<path style="fill:none;stroke:#FFFFFF;stroke-width:4;stroke-miterlimit:10;" d="M164.5,417.4c0-53.3,121-56,148.4-127.2
		c41-106.8,30.1-106.8,17.5-199.5"/>
	<rect x="86.8" y="423.9" style="fill:none;" width="130.1" height="76.8"/>
	<text transform="matrix(1 0 0 1 93.2172 441.3874)"><tspan x="0" y="0" style="fill:#FFFFFF; font-family:'Verdana'; font-size:23px;">Naam van </tspan><tspan x="15.4" y="27.6" style="fill:#FFFFFF; font-family:'Verdana'; font-size:23px;">het vak</tspan></text>
	<rect x="275.6" y="71.7" style="fill:none;" width="111.8" height="22.9"/>
</g>
<g>
	<path style="fill:none;stroke:#FFFFFF;stroke-width:4;stroke-miterlimit:10;" d="M382.6,335.3c6.8-94.1,10.7-144.6,21.3-244.6"/>
	<rect x="239.9" y="343.7" style="fill:none;" width="287.4" height="207.3"/>
	<text transform="matrix(1 0 0 1 287.3554 361.1371)"><tspan x="0" y="0" style="fill:#FFFFFF; font-family:'Verdana'; font-size:23px;">S01: semester 1</tspan><tspan x="0" y="27.6" style="fill:#FFFFFF; font-family:'Verdana'; font-size:23px;">S02: semester 2</tspan><tspan x="-29.5" y="55.2" style="fill:#FFFFFF; font-family:'Verdana'; font-size:23px;">S12: semester 1 en 2</tspan></text>
	<rect x="391.1" y="71.8" style="fill:none;" width="35.7" height="22.9"/>
</g>
<g>
	<path style="fill:none;stroke:#FFFFFF;stroke-width:4;stroke-miterlimit:10;" d="M527.3,451.7c0-185.8-79.8-207.4-78.3-361"/>
	<rect x="302.4" y="462.3" style="fill:none;" width="463" height="76.8"/>
	<text transform="matrix(1 0 0 1 392.8354 479.7837)"><tspan x="0" y="0" style="fill:#FFFFFF; font-family:'Verdana'; font-size:23px;">LEC = HC = Hoorcollege</tspan><tspan x="-83.8" y="27.6" style="fill:#FFFFFF; font-family:'Verdana'; font-size:23px;">SEM = SW = Seminarie = Werkcollege</tspan><tspan x="-32.9" y="55.2" style="fill:#FFFFFF; font-family:'Verdana'; font-size:23px;">LAB = PR = Labo = Practicum</tspan></text>
	<rect x="434.6" y="71.8" style="fill:none;" width="39.4" height="22.9"/>
</g>
<g>
	<path style="fill:none;stroke:#FFFFFF;stroke-width:4;stroke-miterlimit:10;" d="M639.8,391.7c0-42.3-135.1-147.4-132.8-301"/>
	<rect x="524.6" y="397" style="fill:none;" width="230.5" height="28.5"/>
	<text transform="matrix(1 0 0 1 550.3388 414.4792)" style="fill:#FFFFFF; font-family:'Verdana'; font-size:23px;">Groepsnummer</text>
	<rect x="480.6" y="71.7" style="fill:none;" width="53.3" height="22.9"/>
</g>
<g>
	<path style="fill:none;stroke:#FFFFFF;stroke-width:4;stroke-miterlimit:10;" d="M681.9,358.6c-46.4,0-133.2-133.2-132.5-267.9"/>
	<rect x="679.1" y="348.7" style="fill:none;" width="156.5" height="76.8"/>
	<text transform="matrix(1 0 0 1 689.3918 366.2231)" style="fill:#FFFFFF; font-family:'Verdana'; font-size:23px;">Lesnummer</text>
	<rect x="538.8" y="71.7" style="fill:none;" width="26.8" height="22.9"/>
</g>
<g>
	<path style="fill:none;stroke:#FFFFFF;stroke-width:4;stroke-miterlimit:10;" d="M777.3,248.4c0-32.7-111.3-15.9-111.3-41.6"/>
	<rect x="712.3" y="248.4" style="fill:none;" width="130.1" height="76.8"/>
	<text transform="matrix(1 0 0 1 750.1052 265.85)" style="fill:#FFFFFF; font-family:'Verdana'; font-size:23px;">Data</text>
	<rect x="628.5" y="183.7" style="fill:none;" width="82.7" height="22.9"/>
</g>
</svg>
