<?xml version="1.0" encoding="utf-8"?>
<!-- Generator: Adobe Illustrator 19.1.0, SVG Export Plug-In . SVG Version: 6.00 Build 0)  -->
<svg version="1.1" id="Layer_1" xmlns="http://www.w3.org/2000/svg" xmlns:xlink="http://www.w3.org/1999/xlink" x="0px" y="0px"
	 viewBox="0 0 369.9 106.2" style="enable-background:new 0 0 369.9 106.2;" xml:space="preserve">
<g>
	<g>
		<path style="fill:#00436A;" d="M157.9,32.6c-9,0-12.2-4.2-12.2-12.5V0h4v19.9c0,6.4,2.1,9.5,8.4,9.5c6.5,0,8.8-3.4,8.8-10V0h3.8
			v19.5C170.7,27.3,166.7,32.6,157.9,32.6z"/>
		<path style="fill:#00436A;" d="M192,32.3v-16c0-1.9-0.6-3.4-3-3.4c-1.9,0-4.7,1.3-7.1,3.8v15.6h-3.8V10.2l3.2-0.3
			c0.3,0.6,0.5,2.2,0.5,3.8c3-2.9,5.9-4,8.5-4c4.1,0,5.5,2,5.5,6.1v16.6H192z"/>
		<path style="fill:#00436A;" d="M203,5.1V1.5h4.2v3.7H203z M203.3,32.3V10.2l3.8-0.2v22.4H203.3z"/>
		<path style="fill:#00436A;" d="M221.3,26.3c0.3,1,0.4,1.6,0.4,2.2c0-0.6,0.1-1.4,0.5-2.2l6.3-16.1h3.6l-9.1,22.1h-3.3l-8.4-22.1h4
			L221.3,26.3z"/>
		<path style="fill:#00436A;" d="M244.3,32.6c-5.6,0-9.5-2.8-9.5-10.2c0-8.2,4.1-12.6,10.7-12.6c4.9,0,7.6,3.4,7.6,8.3
			c0,1,0,2-0.1,3.5h-14.3c0,5.7,2.1,8.1,6.6,8.1c2.3,0,4.6-0.9,7-2.3l1.1,2.6C250.9,31.6,248.1,32.6,244.3,32.6z M249.6,18.3
			c0-3.6-1.6-5.7-4.5-5.7c-3.4,0-5.9,2.1-6.4,6.2h10.9V18.3z"/>
		<path style="fill:#00436A;" d="M270.7,13.2c-0.7-0.1-1-0.1-1.4-0.1c-2.3,0-3,0.5-6.3,6.4v12.8h-3.8V10.2l3-0.3
			c0.3,0.7,0.5,3.3,0.6,6c2.4-5.1,3.7-6.1,6-6.1c0.9,0,1.8,0.1,2.3,0.3L270.7,13.2z"/>
		<path style="fill:#00436A;" d="M280.9,32.7c-2.9,0-5.4-0.7-7.7-1.9l1-3c2.4,1.2,4.9,2,7.2,2c3.3,0,4.5-1.4,4.5-3
			c0-1.7-0.6-2.6-4.7-3.9c-5.7-1.8-7-3.5-7-6.7c0-3.7,3-6.5,8.3-6.5c2.8,0,5,0.5,6.8,1.6l-1,2.9c-1.4-0.7-3.9-1.3-6.1-1.3
			c-3.3,0-4.2,1.3-4.2,3c0,1.9,0.7,2.6,4.9,3.9c5.6,1.8,6.7,3.6,6.7,6.5C289.7,29.7,287.2,32.7,280.9,32.7z"/>
		<path style="fill:#00436A;" d="M295.3,5.1V1.5h4.2v3.7H295.3z M295.6,32.3V10.2l3.8-0.2v22.4H295.6z"/>
		<path style="fill:#00436A;" d="M312.6,32.7c-3.6,0-5.3-1.6-5.3-5.3V13.1l-3-0.1l0.2-2.6l2.8-0.1l0.5-7.1l3.3-0.3v7.4h7.3l-0.2,3
			h-7V27c0,1.9,0.6,2.5,2.4,2.5c1.4,0,2.9-0.3,4.7-1.1l0.8,2.7C317.2,32.1,315.1,32.7,312.6,32.7z"/>
		<path style="fill:#00436A;" d="M331.5,32.6c-5.6,0-9.5-2.8-9.5-10.2c0-8.2,4.1-12.6,10.7-12.6c4.9,0,7.6,3.4,7.6,8.3
			c0,1,0,2-0.1,3.5h-14.3c0,5.7,2.1,8.1,6.6,8.1c2.3,0,4.6-0.9,7-2.3l1.1,2.6C338.1,31.6,335.2,32.6,331.5,32.6z M336.8,18.3
			c0-3.6-1.6-5.7-4.5-5.7c-3.4,0-5.9,2.1-6.4,6.2h10.9V18.3z"/>
		<path style="fill:#00436A;" d="M346.2,5.1V1.5h4.2v3.7H346.2z M346.4,32.3V10.2l3.8-0.2v22.4H346.4z"/>
		<path style="fill:#00436A;" d="M363.5,32.7c-3.6,0-5.3-1.6-5.3-5.3V13.1l-3-0.1l0.2-2.6l2.8-0.1l0.5-7.1l3.3-0.3v7.4h7.3l-0.2,3
			H362V27c0,1.9,0.6,2.5,2.4,2.5c1.4,0,2.9-0.3,4.7-1.1l0.8,2.7C368.1,32.1,366,32.7,363.5,32.7z"/>
	</g>
	<g>
		<path style="fill:#920031;" d="M168.1,88.3l-3.5-9.9h-12.1l-3.8,9.9h-3.8L157.2,56h3.7l11.5,32.3H168.1z M153.5,75.5h10.2l-4.4-13
			c-0.3-1-0.5-1.9-0.5-2.6c0,0.6-0.2,1.7-0.6,2.6L153.5,75.5z"/>
		<path style="fill:#920031;" d="M190.9,88.3v-16c0-1.9-0.6-3.4-3-3.4c-1.9,0-4.7,1.3-7.1,3.8v15.6H177V66.2l3.2-0.3
			c0.3,0.6,0.5,2.2,0.5,3.8c3.1-2.9,5.9-4,8.5-4c4.1,0,5.5,2.1,5.5,6.1v16.6H190.9z"/>
		<path style="fill:#920031;" d="M207.9,88.6c-3.6,0-5.3-1.6-5.3-5.3V69.1l-3-0.1l0.2-2.6l2.8-0.1l0.5-7.1l3.3-0.3v7.4h7.3l-0.2,3
			h-7.1V83c0,1.9,0.6,2.5,2.4,2.5c1.4,0,2.9-0.3,4.7-1.1l0.8,2.7C212.5,88.1,210.3,88.6,207.9,88.6z"/>
		<path style="fill:#920031;" d="M225.7,88.3h-3.1l-6.8-22.1h3.8l4.7,16c0.3,1,0.4,1.6,0.4,2.2c0-0.6,0.2-1.4,0.5-2.2l5.2-16
			l3.2-0.2l5.3,16.2c0.3,1,0.4,1.6,0.4,2.2c0-0.6,0.1-1.4,0.4-2.2l5.1-16h3.4l-7.4,22.1h-3.3l-5.4-16.1c-0.3-0.8-0.4-1.6-0.4-2.2
			c0,0.6-0.1,1.4-0.4,2.2L225.7,88.3z"/>
		<path style="fill:#920031;" d="M260.6,88.6c-5.6,0-9.5-2.8-9.5-10.2c0-8.2,4.1-12.6,10.7-12.6c4.9,0,7.6,3.4,7.6,8.3
			c0,1,0,2-0.1,3.5h-14.3c0,5.7,2.1,8.1,6.6,8.1c2.3,0,4.6-0.9,7-2.3l1.1,2.6C267.1,87.6,264.3,88.6,260.6,88.6z M265.9,74.3
			c0-3.6-1.6-5.7-4.5-5.7c-3.4,0-5.9,2.1-6.4,6.2h10.9V74.3z"/>
		<path style="fill:#920031;" d="M287,69.2c-0.7,0-1,0-1.4,0c-2.3,0-3,0.5-6.3,6.4v12.8h-3.8V66.2l3-0.3c0.3,0.7,0.5,3.3,0.6,6
			c2.4-5.1,3.7-6.1,6-6.1c0.9,0,1.8,0.1,2.3,0.3L287,69.2z"/>
		<path style="fill:#920031;" d="M299.9,88.5c-1.8,0-3.3-0.2-4.5-0.9v9.9l-3.9,0.2V66.2l3.2-0.3c0.3,0.7,0.5,1.9,0.5,3
			c1.9-1.9,4.4-3.1,7.1-3.1c5.3,0,8.3,3.4,8.3,10.8C310.6,83.2,307.3,88.5,299.9,88.5z M301.3,68.8c-2.4,0-4.5,1.4-5.9,2.9v12.9
			c1.2,0.6,3,1.1,4.7,1.1c4.3,0,6.6-3.2,6.6-9C306.7,72,305.1,68.8,301.3,68.8z"/>
		<path style="fill:#920031;" d="M324.4,88.6c-5.6,0-9.5-2.8-9.5-10.2c0-8.2,4.1-12.6,10.7-12.6c4.9,0,7.6,3.4,7.6,8.3
			c0,1,0,2-0.1,3.5h-14.3c0,5.7,2.1,8.1,6.6,8.1c2.3,0,4.6-0.9,7-2.3l1.1,2.6C330.9,87.6,328.1,88.6,324.4,88.6z M329.7,74.3
			c0-3.6-1.6-5.7-4.5-5.7c-3.4,0-5.9,2.1-6.4,6.2h10.9V74.3z"/>
		<path style="fill:#920031;" d="M353.2,88.3v-16c0-1.9-0.6-3.4-3-3.4c-1.9,0-4.7,1.3-7.1,3.8v15.6h-3.8V66.2l3.2-0.3
			c0.3,0.6,0.5,2.2,0.5,3.8c3-2.9,5.9-4,8.5-4c4.1,0,5.5,2.1,5.5,6.1v16.6H353.2z"/>
	</g>
	<g>
		<path style="fill:#920031;" d="M86.4,0v58.9c0,20.3-12.9,33.2-30.8,33.2c-18.1,0-31.2-12.9-31.2-33.2V0H9.5v0H0v60.1
			C0,82.4,13.8,98.8,32.8,104c0.3,0.1,0.7,0.2,1.1,0.3c0.4,0.1,0.8,0.2,1.2,0.2c0.8,0.2,1.6,0.4,2.5,0.5c7.2,1.3,15.1,1.4,22.1,0.5
			c1.2-0.1,2.4-0.3,3.5-0.4c1.1-0.2,2.1-0.5,3.1-0.8c0,0,0,0,0,0c0,0,0,0,0,0c0.2-0.1,0.5-0.1,0.7-0.2c0.1,0,0.1,0,0.2-0.1
			c18-5.7,31.1-21.8,31.1-43.4V0H86.4z"/>
		<path style="fill:#00436A;" d="M75,54.8C42.5,39.2,30.6,48,30.6,48s15.7-29.9,49.1-15.9c36.1,15.1,46.6,13.3,51.4,4.9
			C135.1,52.8,116.2,74.5,75,54.8z"/>
	</g>
</g>
</svg>
