<?xml version="1.0" encoding="utf-8"?>
<!-- Generator: Adobe Illustrator 19.1.0, SVG Export Plug-In . SVG Version: 6.00 Build 0)  -->
<svg version="1.1" id="Capa_1" xmlns="http://www.w3.org/2000/svg" xmlns:xlink="http://www.w3.org/1999/xlink" x="0px" y="0px"
	 viewBox="186 -186 472 472" style="enable-background:new 186 -186 472 472;" xml:space="preserve">
<style type="text/css">
	.st0{fill:#FFFFFF;}
</style>
<g>
	<g>
		<path class="st0" d="M571.8-8.5c9.8,0,18.1-3.4,25-10.3c6.9-6.9,10.3-15.2,10.3-25s-3.4-18.1-10.3-25c-6.9-6.9-15.2-10.3-25-10.3
			s-18.1,3.4-25,10.3c-6.9,6.9-10.3,15.2-10.3,25s3.4,18.1,10.3,25C553.7-11.8,562-8.5,571.8-8.5z"/>
		<path class="st0" d="M561.5,233.3L194,14.7l-8,12.5l368.4,218.5c8.3,4.7,17.2,6,26.8,3.6c9.5-2.4,16.9-7.8,22.3-16.1l-12.5-8
			c-2.9,5.4-7.3,8.7-12.9,10.3C572.4,237,566.9,236.3,561.5,233.3z"/>
		<path class="st0" d="M597.2,69.1l-62.4-36.6L527.6-62c-1.2-11.9-6.5-21.1-16.1-27.7l-90.1-53.5c-10.7-7.1-22.5-9.5-35.2-7.1
			s-22.7,8.9-29.9,19.6c-8.3,12.5-10.1,25.2-5.4,38.4l24.1,81.2l-74,24.1C291,17.1,285,24.8,283.2,36.1c-0.6,7.1,1.5,13.2,6.2,18.3
			s11.3,8.2,19.6,9.4c1.8,0,4.7-0.6,8.9-1.8l100.8-33c4.2-1.8,7.8-4.3,11.1-7.6s4.9-6.4,4.9-9.4c1.2-7.1,1.8-11,1.8-11.6l-16.1-55.3
			l60.7,36.6l8,52.6c0.6,9.5,4.5,16.3,11.6,20.5l79.4,46.4c4.2,2.4,8.7,2.9,13.4,1.3c4.7-1.5,8.3-4.5,10.7-8.9s2.9-9.1,1.3-13.8
			C604.1,75.1,601.4,71.6,597.2,69.1z"/>
	</g>
</g>
</svg>
